<?xml version="1.0" encoding="utf-8"?>
<!-- Generator: Adobe Illustrator 26.0.0, SVG Export Plug-In . SVG Version: 6.00 Build 0)  -->
<svg version="1.1" xmlns="http://www.w3.org/2000/svg" xmlns:xlink="http://www.w3.org/1999/xlink" x="0px" y="0px"
	 viewBox="0 0 500 500" style="enable-background:new 0 0 500 500;" xml:space="preserve">
<style type="text/css">
	.st0{fill:#F6921E;}
	.st1{fill:#814EFF;}
	.st2{fill:none;stroke:#060305;stroke-linecap:round;stroke-linejoin:round;stroke-miterlimit:10;}
	.st3{fill:#060305;}
	.st4{fill:#FFFFFF;}
	.st5{fill:#C14F4F;}
	.st6{fill:#9E97FF;}
	.st7{fill:none;stroke:#FFFFFF;stroke-linecap:round;stroke-linejoin:round;stroke-miterlimit:10;}
	.st8{fill:#FF99A8;}
</style>
<g id="BACKGROUND">
</g>
<g id="OBJECTS">
	<path class="st0" d="M490.99,342.77c-16.05,44.49-55.26,78.15-99.46,94.96c-14.37,5.47-29.18,9.62-44.23,12.55
		c-31.27,6.12-63.61,7.04-95.36,3.71c-15.09-1.58-30.21-4.06-45.07-7.57c-39.74-9.4-77.57-26.26-107.83-53.32
		c-41.57-37.18-66.32-95.94-53.24-150.16c5.85-24.21,28.61-39.96,52.37-47.4c23.78-7.45,49.24-7.06,73.69-11.88
		c24.44-4.8,44.67-14.06,58.24-34.95c23.44-36.08,67.55-56.54,110.55-54.88c43.01,1.64,84,23.96,111.88,56.73
		c27.88,32.78,43.16,75.25,46.7,118.13C501.28,293.66,499.48,319.22,490.99,342.77z"/>
	<g>
		<g>
			<path class="st1" d="M384.05,297.64c-12.52,50.72-24.33,101.88-36.76,152.65c-31.27,6.12-63.61,7.04-95.36,3.71
				c-15.09-1.58-30.21-4.06-45.07-7.57c-6.18-17.91-9.28-36.93-7.1-55.68c5.11-43.82,22.87-93.6,47.12-130.45
				C294.1,266.61,338.27,284.53,384.05,297.64z"/>
			<path class="st2" d="M281.23,342.2c-4.82,39.91-8.62,71.38-13.44,111.29"/>
			<path class="st2" d="M207.53,430.13c2.95,4.64,8.01,7.88,13.46,8.62c5.45,0.74,11.19-1.02,15.28-4.7"/>
			<path class="st2" d="M273.8,400.14c-3.08,5.45-6.16,10.91-9.24,16.36c1.98,0.11,3.74,1.09,4.02,3.06
				c0.28,1.97-0.98,4.04-2.86,4.7c1.18,5.57,2.26,10.87,3.44,16.44"/>
			<path class="st2" d="M373.18,299.55c-11.06,53.29-21.76,98.28-35.86,150.85"/>
			<path class="st2" d="M351.29,291.37c-1.42,17.02,3.14,34.48,12.69,48.64"/>
		</g>
		<g>
			<path class="st3" d="M349.88,143.33c-2.78,2.66-3.52,7.22-1.73,10.62c1.79,3.41,5.97,5.37,9.73,4.59l2.68-16.48
				C357.24,140.12,352.66,140.66,349.88,143.33z"/>
			<path class="st2" d="M396.53,155.53c2.92,0.55,5.59,2.3,7.26,4.76c1.67,2.46,2.31,5.59,1.75,8.5"/>
			<path class="st3" d="M397.84,155.81c1.31-1.48,0.61-5.18-1.26-5.8c2.43-2.25,2.39-6.61-0.08-8.82c-1.54-1.38-3.75-1.93-5.02-3.56
				c-0.74-0.95-1.06-2.16-1.5-3.29c-1.53-3.99-4.69-7.32-8.6-9.05c-3.9-1.73-8.5-1.84-12.48-0.3c2.77,11.96,4.26,25.05,4.69,37.33
				l23.88,10.57c3.54-1.06,6.2-4.56,6.27-8.25C403.82,160.93,401.33,157.02,397.84,155.81z"/>
		</g>
		<g>
			<path class="st4" d="M418.23,184.05c-10.33-11.64-22.27-21.85-35.38-30.25c-2.25,1.3-5.56,2.98-8.12,3.42
				c-2.56,0.43-5.37,0.03-7.39-1.59c-1.82-1.45-2.85-3.84-2.66-6.15c-22.86-1.53-46.79-2.7-69.64-4.23
				c-8.64,42.41-21.17,77.21-44.74,113.51l134.78,43.12c3.7-15.81,8.14-31.36,11.84-47.17c13.83-5.68,28.25-11.7,42.13-17.26
				c3.99-1.6,7.68-2.27,11.67-3.87C442.93,215.24,431.45,198.95,418.23,184.05z"/>
			<path class="st2" d="M356.33,151.55c-1.09,6.21,1.36,12.84,6.02,17.09s11.34,6.06,17.56,5.07c6.22-0.99,11.91-4.69,15.6-9.79"/>
			<path class="st2" d="M322.03,147.47c-5.7,13.5-12.18,26.67-19.41,39.42"/>
			<path class="st2" d="M426.05,194.85c-7.76,11.02-15.52,22.04-23.28,33.05"/>
			<path class="st2" d="M422.87,237.74c8.58-3.51,17.16-7.02,25.74-10.53"/>
		</g>
		<g>
			<g>
				<path class="st5" d="M390.22,161.32c-1.54-1.15-3.25-2.48-4.79-3.64c-0.3-1.9-0.58-3.88-0.87-5.78
					c2.41-0.16,4.67-1.81,5.55-4.06c0.88-2.26,0.33-5-1.34-6.75c-1.67-1.75-4.39-2.42-6.68-1.64c-0.73,1.46-1.57,3-2.3,4.46
					c-0.34-2.5-1.02-4.99-1.37-7.49c-0.72-5.24-5.77-9.68-11.04-10.07c-5.27-0.39-9.3,3.24-10.84,8.29
					c-1.34,4.38-1.98,9.04-1.53,13.6c0.34,3.47,2.35,6.13,5.63,7.29c1.21,6.33,6.46,12.19,12.79,13.39
					C379.76,170.13,386.77,166.76,390.22,161.32z"/>
				<g>
					<path class="st2" d="M360.48,155.96c2.83,1.64,6.22,2.31,9.46,1.87c3.25-0.44,6.33-1.98,8.63-4.32"/>
					<path class="st2" d="M383.21,144.48c1.26-0.48,2.52-0.96,3.78-1.44"/>
					<path class="st2" d="M384.87,151.95c-0.52,0-1.05,0-1.57,0"/>
				</g>
				<g>
					<circle class="st3" cx="370.5" cy="146.3" r="1.15"/>
					<circle class="st3" cx="358.28" cy="143.74" r="1.15"/>
					<path class="st2" d="M357.06,137.82c0.61-0.81,1.71-1.21,2.7-1.01c0.99,0.21,1.83,1.02,2.07,2.01"/>
					<path class="st2" d="M368.72,139.73c1.24,0.18,2.47,0.36,3.71,0.54"/>
					<path class="st2" d="M363.99,143.08c-0.69,1.49-1.39,2.98-2.08,4.47c0.54,0.09,1.09,0.17,1.63,0.26"/>
					<path class="st2" d="M365.36,149.8c0.35,0.56,1.04,0.88,1.69,0.79c0.65-0.09,1.22-0.6,1.4-1.23"/>
				</g>
			</g>
			<g>
				<path class="st3" d="M378.58,127.33c-1.46-1.85-3.67-3-5.95-3.63c-4-1.1-8.38-0.71-12.13,1.07c-3.74,1.78-6.81,4.94-8.47,8.74
					l28.39,6.16C380.89,135.42,381.23,130.68,378.58,127.33z"/>
				<path class="st2" d="M349.86,132.76c2.45-4.26,6.6-7.52,11.33-8.86c4.73-1.35,9.98-0.77,14.3,1.56"/>
			</g>
		</g>
	</g>
	<g>
		<g>
			<rect x="4.7" y="72.44" class="st6" width="300.87" height="216.78"/>
			<rect x="99.51" y="141.01" class="st4" width="88.29" height="35.92"/>
			<g>
				<line class="st2" x1="99.51" y1="199.76" x2="187.79" y2="199.76"/>
				<line class="st2" x1="99.51" y1="208.74" x2="187.79" y2="208.74"/>
				<line class="st2" x1="99.51" y1="217.72" x2="187.79" y2="217.72"/>
				<line class="st2" x1="99.51" y1="226.7" x2="187.79" y2="226.7"/>
				<line class="st2" x1="99.51" y1="235.68" x2="187.79" y2="235.68"/>
				<line class="st2" x1="99.51" y1="244.66" x2="187.79" y2="244.66"/>
			</g>
			<g>
				<line class="st2" x1="207.12" y1="141.01" x2="289.79" y2="141.01"/>
				<line class="st2" x1="207.12" y1="149.99" x2="289.79" y2="149.99"/>
				<line class="st2" x1="207.12" y1="158.98" x2="289.79" y2="158.98"/>
				<line class="st2" x1="207.12" y1="167.96" x2="289.79" y2="167.96"/>
				<line class="st2" x1="207.12" y1="176.94" x2="289.79" y2="176.94"/>
			</g>
		</g>
		<g>
			<rect x="4.7" y="125.25" class="st1" width="76.65" height="163.98"/>
			<path class="st7" d="M29.93,269.94c0-3.28-2.66-5.93-5.93-5.93c-3.28,0-5.93,2.66-5.93,5.93c0,3.28,2.66,5.93,5.93,5.93
				C27.28,275.87,29.93,273.22,29.93,269.94z"/>
			<path class="st0" d="M48.96,269.94c0-3.28-2.66-5.93-5.93-5.93c-3.28,0-5.93,2.66-5.93,5.93c0,3.28,2.66,5.93,5.93,5.93
				C46.3,275.87,48.96,273.22,48.96,269.94z"/>
			<path class="st8" d="M67.98,269.94c0-3.28-2.66-5.93-5.93-5.93c-3.28,0-5.93,2.66-5.93,5.93c0,3.28,2.66,5.93,5.93,5.93
				C65.33,275.87,67.98,273.22,67.98,269.94z"/>
		</g>
		<g>
			<rect x="4.7" y="72.44" class="st1" width="300.87" height="23.11"/>
			<circle class="st7" cx="17.45" cy="84" r="3.45"/>
			<circle class="st7" cx="32.01" cy="84" r="3.45"/>
			<circle class="st7" cx="46.56" cy="84" r="3.45"/>
		</g>
		<g>
			<rect x="4.7" y="95.56" class="st4" width="300.87" height="29.69"/>
			<rect x="14" y="106.7" class="st8" width="16.96" height="6.93"/>
			<g>
				<line class="st2" x1="48.51" y1="108.07" x2="85.8" y2="108.07"/>
				<line class="st2" x1="48.51" y1="112.26" x2="85.8" y2="112.26"/>
			</g>
			<g>
				<line class="st2" x1="99.51" y1="108.07" x2="136.8" y2="108.07"/>
				<line class="st2" x1="99.51" y1="112.26" x2="136.8" y2="112.26"/>
			</g>
			<g>
				<line class="st2" x1="150.5" y1="108.07" x2="187.79" y2="108.07"/>
				<line class="st2" x1="150.5" y1="112.26" x2="187.79" y2="112.26"/>
			</g>
			<g>
				<line class="st2" x1="201.5" y1="108.07" x2="238.79" y2="108.07"/>
				<line class="st2" x1="201.5" y1="112.26" x2="238.79" y2="112.26"/>
			</g>
			<g>
				<line class="st2" x1="252.5" y1="108.07" x2="289.79" y2="108.07"/>
				<line class="st2" x1="252.5" y1="112.26" x2="289.79" y2="112.26"/>
			</g>
		</g>
	</g>
	<g>
		<polygon class="st1" points="155.86,328.9 162.74,317 148.99,317 		"/>
		<polygon class="st1" points="104.22,420.54 97.35,432.44 111.09,432.44 		"/>
		<polygon class="st1" points="475.85,364.04 487.75,370.92 487.75,357.17 		"/>
		<polygon class="st1" points="423.71,114.81 411.81,107.94 411.81,121.68 		"/>
		<path class="st1" d="M203.32,45.77h-13.75c-0.2,0-0.39-0.11-0.5-0.29s-0.1-0.4,0-0.57l6.87-11.91c0.2-0.35,0.79-0.35,0.99,0
			l6.87,11.91c0.1,0.18,0.1,0.4,0,0.57S203.52,45.77,203.32,45.77z M190.56,44.63h11.76l-5.88-10.19L190.56,44.63z"/>
		<path class="st1" d="M199.11,311.56c0-1.05-0.85-1.91-1.91-1.91c-1.05,0-1.91,0.85-1.91,1.91c0,1.05,0.85,1.91,1.91,1.91
			C198.26,313.47,199.11,312.62,199.11,311.56z"/>
		<path class="st1" d="M388.23,379.29c0-1.05-0.85-1.91-1.91-1.91c-1.05,0-1.91,0.85-1.91,1.91c0,1.05,0.85,1.91,1.91,1.91
			C387.38,381.2,388.23,380.35,388.23,379.29z"/>
		<circle class="st1" cx="77.82" cy="297.41" r="1.91"/>
		<circle class="st1" cx="27.68" cy="320.28" r="1.91"/>
		<path class="st1" d="M186.46,458.38c-1.37,0-2.48-1.11-2.48-2.48s1.11-2.48,2.48-2.48s2.48,1.11,2.48,2.48
			S187.83,458.38,186.46,458.38z M186.46,454.56c-0.74,0-1.34,0.6-1.34,1.34c0,0.74,0.6,1.33,1.34,1.33s1.34-0.6,1.34-1.33
			C187.79,455.16,187.2,454.56,186.46,454.56z"/>
		<path class="st1" d="M413.11,349.31c0-1.05-0.85-1.91-1.91-1.91s-1.91,0.85-1.91,1.91c0,1.05,0.85,1.91,1.91,1.91
			S413.11,350.37,413.11,349.31z"/>
		<path class="st1" d="M475.85,345.4c-1.37,0-2.48-1.11-2.48-2.48s1.11-2.48,2.48-2.48c1.37,0,2.48,1.11,2.48,2.48
			S477.22,345.4,475.85,345.4z M475.85,341.58c-0.74,0-1.34,0.6-1.34,1.33c0,0.74,0.6,1.34,1.34,1.34c0.74,0,1.33-0.6,1.33-1.34
			C477.18,342.18,476.58,341.58,475.85,341.58z"/>
		<path class="st1" d="M460.84,98.67c0-1.05-0.85-1.91-1.91-1.91c-1.05,0-1.91,0.85-1.91,1.91c0,1.05,0.85,1.91,1.91,1.91
			C459.99,100.58,460.84,99.73,460.84,98.67z"/>
		<path class="st1" d="M324.3,119.71c-1.37,0-2.48-1.11-2.48-2.48c0-1.37,1.11-2.48,2.48-2.48s2.48,1.11,2.48,2.48
			C326.79,118.59,325.67,119.71,324.3,119.71z M324.3,115.89c-0.74,0-1.33,0.6-1.33,1.34c0,0.74,0.6,1.33,1.33,1.33
			c0.74,0,1.34-0.6,1.34-1.33C325.64,116.49,325.04,115.89,324.3,115.89z"/>
		<path class="st1" d="M425.62,146.94c0-1.05-0.85-1.91-1.91-1.91c-1.05,0-1.91,0.85-1.91,1.91c0,1.05,0.85,1.91,1.91,1.91
			C424.77,148.85,425.62,148,425.62,146.94z"/>
		<path class="st1" d="M243.4,50.7c0-1.05-0.85-1.91-1.91-1.91c-1.05,0-1.91,0.85-1.91,1.91c0,1.05,0.85,1.91,1.91,1.91
			C242.55,52.6,243.4,51.75,243.4,50.7z"/>
		<path class="st1" d="M116.79,358.31c-1.37,0-2.48-1.11-2.48-2.48s1.11-2.48,2.48-2.48c1.37,0,2.48,1.11,2.48,2.48
			S118.16,358.31,116.79,358.31z M116.79,354.5c-0.74,0-1.34,0.6-1.34,1.34c0,0.74,0.6,1.33,1.34,1.33c0.74,0,1.34-0.6,1.34-1.33
			C118.13,355.09,117.53,354.5,116.79,354.5z"/>
	</g>
	<g>
		<path class="st1" d="M131.22,384.54C131.22,384.54,131.22,384.54,131.22,384.54c-2.02,0-3.72-1.24-4.34-3.16
			c-0.56-1.74-2.04-2.36-3.24-2.36c-1.2,0-2.68,0.62-3.24,2.36c-0.62,1.92-2.32,3.16-4.34,3.16c0,0,0,0,0,0
			c-2.02,0-3.72-1.24-4.33-3.16c-0.56-1.74-2.04-2.36-3.24-2.36c-1.2,0-2.68,0.62-3.24,2.36c-0.62,1.92-2.32,3.16-4.33,3.16
			c-2.02,0-3.72-1.24-4.34-3.16c-0.56-1.74-2.04-2.36-3.24-2.36c-1.2,0-2.68,0.62-3.24,2.36c-0.62,1.92-2.32,3.16-4.34,3.16
			c-2.02,0-3.72-1.24-4.34-3.16c-0.56-1.74-2.04-2.36-3.24-2.36s-2.68,0.62-3.24,2.36c-0.62,1.92-2.32,3.16-4.34,3.16c0,0,0,0,0,0
			c-2.02,0-3.72-1.24-4.33-3.16c-0.56-1.74-2.04-2.36-3.24-2.36c-1.2,0-2.68,0.62-3.24,2.36c-0.1,0.3-0.42,0.47-0.72,0.37
			c-0.3-0.1-0.47-0.42-0.37-0.72c0.62-1.92,2.32-3.16,4.34-3.16c2.02,0,3.72,1.24,4.34,3.16c0.56,1.74,2.04,2.36,3.24,2.36h0
			c1.2,0,2.68-0.62,3.24-2.36c0.62-1.92,2.32-3.16,4.34-3.16s3.72,1.24,4.34,3.16c0.56,1.74,2.04,2.36,3.24,2.36
			c1.2,0,2.68-0.62,3.24-2.36c0.62-1.92,2.32-3.16,4.33-3.16c2.02,0,3.72,1.24,4.34,3.16c0.56,1.74,2.04,2.36,3.24,2.36
			c1.2,0,2.68-0.62,3.24-2.36c0.62-1.92,2.32-3.16,4.34-3.16c2.02,0,3.72,1.24,4.34,3.16c0.56,1.74,2.04,2.36,3.24,2.36h0
			c1.2,0,2.68-0.62,3.24-2.36c0.62-1.92,2.32-3.16,4.34-3.16c0,0,0,0,0,0c2.02,0,3.72,1.24,4.33,3.16c0.56,1.74,2.04,2.36,3.24,2.36
			c1.2,0,2.68-0.62,3.24-2.36c0.1-0.3,0.42-0.47,0.72-0.37c0.3,0.1,0.47,0.42,0.37,0.72C134.94,383.3,133.24,384.54,131.22,384.54z"
			/>
		<path class="st1" d="M336.85,42.58L336.85,42.58c-2.02,0-3.72-1.24-4.33-3.16c-0.56-1.74-2.04-2.36-3.24-2.36
			c-1.2,0-2.68,0.62-3.24,2.36c-0.1,0.3-0.42,0.47-0.72,0.37c-0.3-0.1-0.47-0.42-0.37-0.72c0.62-1.92,2.32-3.16,4.34-3.16
			s3.72,1.24,4.34,3.16c0.56,1.74,2.04,2.36,3.24,2.36l0,0c1.2,0,2.68-0.62,3.24-2.36c0.62-1.92,2.32-3.16,4.33-3.16
			c2.02,0,3.72,1.24,4.34,3.16c0.56,1.74,2.04,2.36,3.24,2.36c1.2,0,2.68-0.62,3.24-2.36c0.62-1.92,2.32-3.16,4.33-3.16
			c2.02,0,3.72,1.24,4.34,3.16c0.56,1.74,2.04,2.36,3.24,2.36c1.2,0,2.68-0.62,3.24-2.36c0.62-1.92,2.32-3.16,4.33-3.16l0,0
			c2.02,0,3.72,1.24,4.34,3.16c0.56,1.74,2.04,2.36,3.24,2.36c1.2,0,2.68-0.62,3.24-2.36c0.62-1.92,2.32-3.16,4.34-3.16
			c2.02,0,3.72,1.24,4.33,3.16c0.56,1.74,2.04,2.36,3.24,2.36c1.2,0,2.68-0.62,3.24-2.36c0.1-0.3,0.42-0.47,0.72-0.37
			c0.3,0.1,0.47,0.42,0.37,0.72c-0.62,1.92-2.32,3.16-4.33,3.16c-2.02,0-3.72-1.24-4.34-3.16c-0.56-1.74-2.04-2.36-3.24-2.36
			c-1.2,0-2.68,0.62-3.24,2.36c-0.62,1.92-2.32,3.16-4.33,3.16c-2.02,0-3.72-1.24-4.34-3.16c-0.56-1.74-2.04-2.36-3.24-2.36
			c-1.2,0-2.68,0.62-3.24,2.36c-0.62,1.92-2.32,3.16-4.34,3.16s-3.72-1.24-4.34-3.16c-0.56-1.74-2.04-2.36-3.24-2.36
			c-1.2,0-2.68,0.62-3.24,2.36c-0.62,1.92-2.32,3.16-4.34,3.16c-2.02,0-3.72-1.24-4.33-3.16c-0.56-1.74-2.04-2.36-3.24-2.36
			c-1.2,0-2.68,0.62-3.24,2.36C340.57,41.34,338.87,42.58,336.85,42.58z"/>
		<path class="st1" d="M451.35,426.84c-2.02,0-3.72-1.24-4.34-3.16c-0.56-1.74-2.04-2.36-3.24-2.36c-1.2,0-2.68,0.62-3.24,2.36
			c-0.62,1.92-2.32,3.16-4.33,3.16c-2.02,0-3.72-1.24-4.34-3.16c-0.56-1.74-2.04-2.36-3.24-2.36c-1.2,0-2.68,0.62-3.24,2.36
			c-0.62,1.92-2.32,3.16-4.34,3.16s-3.72-1.24-4.34-3.16c-0.56-1.74-2.04-2.36-3.24-2.36l0,0c-1.2,0-2.68,0.62-3.24,2.36
			c-0.62,1.92-2.32,3.16-4.34,3.16c-2.02,0-3.72-1.24-4.33-3.16c-0.56-1.74-2.04-2.36-3.24-2.36c-1.2,0-2.68,0.62-3.24,2.36
			c-0.62,1.92-2.32,3.16-4.33,3.16c-2.02,0-3.72-1.24-4.34-3.16c-0.56-1.74-2.04-2.36-3.24-2.36c-1.2,0-2.68,0.62-3.24,2.36
			c-0.1,0.3-0.42,0.47-0.72,0.37c-0.3-0.1-0.47-0.42-0.37-0.72c0.62-1.92,2.32-3.16,4.33-3.16l0,0c2.02,0,3.72,1.24,4.34,3.16
			c0.56,1.74,2.04,2.36,3.24,2.36c1.2,0,2.68-0.62,3.24-2.36c0.62-1.92,2.32-3.16,4.33-3.16c2.02,0,3.72,1.24,4.34,3.16
			c0.56,1.74,2.04,2.36,3.24,2.36c1.2,0,2.68-0.62,3.24-2.36c0.62-1.92,2.32-3.16,4.34-3.16l0,0c2.02,0,3.72,1.24,4.33,3.16
			c0.56,1.74,2.04,2.36,3.24,2.36s2.68-0.62,3.24-2.36c0.62-1.92,2.32-3.16,4.33-3.16l0,0c2.02,0,3.72,1.24,4.34,3.16
			c0.56,1.74,2.04,2.36,3.24,2.36c1.2,0,2.68-0.62,3.24-2.36c0.62-1.92,2.32-3.16,4.34-3.16c2.02,0,3.72,1.24,4.33,3.16
			c0.56,1.74,2.04,2.36,3.24,2.36c1.2,0,2.68-0.62,3.24-2.36c0.1-0.3,0.42-0.47,0.72-0.37c0.3,0.1,0.47,0.42,0.37,0.72
			C455.07,425.6,453.37,426.84,451.35,426.84L451.35,426.84z"/>
	</g>
	<g>
		<rect x="231.94" y="193.44" class="st2" width="101.31" height="49.43"/>
		<g>
			<path class="st5" d="M443.24,234.43c-5.62,1.94-11.28,4.06-16.89,5.99c-17.52-16.1-42.48-23.75-66.17-21.46
				c-13.11,1.27-26.21,2.54-39.32,3.8c-0.27,1.56,0.63,3.1,1.98,3.92c1.35,0.82,2.97,1.06,4.53,1.29c-2.77,0.31-5.54,0.61-8.31,0.92
				c-0.75,1.41-0.12,3.03,1.17,3.99c1.28,0.95,2.93,1.25,4.5,1.51c10.67,1.8,21.34,3.6,32.01,5.4c-9.61,2.74-19.62,5.52-29.23,8.25
				c0.03,1.6,0.65,3.08,2.15,3.64c1.5,0.56,3.15,0.5,4.75,0.43c8.22-0.34,16.43-0.68,24.65-1.02c-3.99,1.11-8.19,2.11-12.18,3.22
				c-1.5,1.87-2.49,3.45-3.99,5.32c0.35,0.73,0.98,1.2,1.78,1.34c0.79,0.14,1.61,0,2.39-0.2c1.34-0.33,2.63-0.84,3.84-1.49
				c4.01,0.21,8.02,0,12.03,0.22c5.44,0.29,10.88,0.58,16.32,0.38c6.67,9.7,13.24,18.82,19.92,28.52
				c5.5,7.99,16.03,11.54,25.67,10.54c9.64-1,18.61-7.12,23.05-15.74c3.89-7.55,4.32-16.5,2.84-24.86
				C449.26,249.97,446.49,242.27,443.24,234.43z"/>
			<path class="st2" d="M426.23,240.15c4.63,1.2,8.88,3.79,12.07,7.36"/>
			<path class="st2" d="M379.06,260.31c5.61-0.52,11.23-1.03,16.84-1.55"/>
			<path class="st2" d="M355.23,252.16c3.45-0.46,6.9-0.91,10.36-1.37"/>
			<path class="st2" d="M353.22,240.04c3.59,0.27,7.18,0.54,10.77,0.81"/>
			<path class="st2" d="M326.49,228.4c-0.33-0.06-0.66-0.12-0.99-0.19c13.05,0.15,26.11,0.3,39.17,0.45"/>
		</g>
	</g>
</g>
</svg>
